# xmcd
#
# Track frame offsets: 
#        150
#        5673
#        28180
#        54452
#        63674
#        68566
#        74110
#        98972
#        115254
#        126419
#        131075
#        136469
#        163602
#        177907
#        193462
#        198483
#        206286
#        232135
#        244294
#        261368
#        266191
#        271875
#        296608
#        311687
#        329776
#
# Disc length: 4447 seconds
#
# Revision: 0
# Processed by: cddbd v1.5.2PL0 Copyright (c) Steve Scherf et al.
# Submitted via: ExactAudioCopy v1.0b1
#
DISCID=a5115d19
DTITLE=Hank Williams - The Complete Mothers Best Recordings CD2
DYEAR=2010
DGENRE=Country
TTITLE0=Introduction
TTITLE1=Nobody's Lonesome for Me
TTITLE2=Audrey Williams and the Drifting Cowboys My Tight Wad Daddy
TTITLE3=I'll Have a New Life
TTITLE4=Closing
TTITLE5=Introduction
TTITLE6=Everything's Okay
TTITLE7=Audrey Williams and the Drifting Cowboys Why Should I Cry
TTITLE8=Hank and Audrey and the Drifting Cowboys I Heard My Mother Prayi
TTITLE8=ng for Me
TTITLE9=Closing
TTITLE10=Introduction
TTITLE11=Move It on Over
TTITLE12=Audrey Williams I'm Satisfied with Life
TTITLE13=I Saw the Light
TTITLE14=Closing
TTITLE15=Introduction
TTITLE16=Seaman's Blues
TTITLE17=Audrey Williams and the Drifting Cowboys Blues in My Mind
TTITLE18=Hank and Audrey and the Drifting Cowboys Something Got a Hold o
TTITLE18=f Me
TTITLE19=Closing
TTITLE20=Introduction
TTITLE21=Blue Eyes Crying in the Rain
TTITLE22=Audrey Williams and the Drifting Cowboys Bonaparte's Retreat
TTITLE23=I've Just Told Mama Goodbye
TTITLE24=Closing
EXTD=
EXTT0=
EXTT1=
EXTT2=
EXTT3=
EXTT4=
EXTT5=
EXTT6=
EXTT7=
EXTT8=
EXTT9=
EXTT10=
EXTT11=
EXTT12=
EXTT13=
EXTT14=
EXTT15=
EXTT16=
EXTT17=
EXTT18=
EXTT19=
EXTT20=
EXTT21=
EXTT22=
EXTT23=
EXTT24=
PLAYORDER=
